<?xml version="1.0"?>
<svg xmlns="http://www.w3.org/2000/svg" height="512px" viewBox="0 -33 459.645 459" width="512px" class=""><g><path d="m331.746094 69.535156c-5.519532 0-10 4.476563-10 10 0 5.523438 4.480468 10 10 10 59.394531 0 107.542968 48.148438 107.542968 107.539063 0 59.394531-48.148437 107.539062-107.542968 107.539062h-99.59375l47.066406-48.835937c2.523438-2.566406 3.472656-6.285156 2.492188-9.746094-.984376-3.460938-3.75-6.125-7.242188-6.980469-3.496094-.855469-7.179688.234375-9.648438 2.847657l-64.59375 67.023437c-3.746093 3.886719-3.730468 10.039063.027344 13.910156l64.59375 66.460938c3.851563 3.960937 10.179688 4.050781 14.140625.199219 3.960938-3.847657 4.050781-10.179688.203125-14.140626l-49.3125-50.738281h101.867188c45.652344.128907 87.890625-24.152343 110.753906-63.664062 22.859375-39.515625 22.859375-88.234375 0-127.75-22.863281-39.511719-65.101562-63.792969-110.753906-63.664063zm0 0" data-original="#000000" class="active-path" data-old_color="#000000" fill="#2D95E5"/><path d="m258.675781 69.8125-64.59375-66.460938c-3.847656-3.960937-10.179687-4.050781-14.140625-.199218-3.960937 3.847656-4.050781 10.179687-.199218 14.140625l48.578124 49.980469h-101.136718c-70.300782.199218-127.183594 57.242187-127.183594 127.542968 0 70.296875 56.882812 127.34375 127.183594 127.539063 5.523437 0 10-4.476563 10-10 0-5.523438-4.476563-10-10-10-59.265625-.179688-107.210938-48.273438-107.210938-107.539063s47.945313-107.359375 107.210938-107.542968h100.324218l-47.796874 49.59375c-2.519532 2.566406-3.472657 6.289062-2.488282 9.746093.984375 3.460938 3.75 6.125 7.242188 6.980469 3.492187.855469 7.175781-.230469 9.648437-2.847656l64.589844-67.023438c3.746094-3.886718 3.734375-10.039062-.027344-13.910156zm0 0" data-original="#000000" class="active-path" data-old_color="#000000" fill="#2D95E5"/></g> </svg>
