<?xml version="1.0"?>
<svg xmlns="http://www.w3.org/2000/svg" id="Apartment" viewBox="0 0 64 64" width="512px" height="512px" class=""><g><path d="M58,59H55V53.91a5.976,5.976,0,0,0,3.793-9.5A4.953,4.953,0,0,0,57.657,39.6,3.909,3.909,0,0,0,58,38a4,4,0,0,0-8,0,3.909,3.909,0,0,0,.343,1.6,4.955,4.955,0,0,0-1.136,4.809A5.975,5.975,0,0,0,53,53.91v1.222l-1.445-.964a1,1,0,1,0-1.11,1.664L53,57.535V59H45V9h3a1,1,0,0,0,1-1V4a1,1,0,0,0-1-1H16a1,1,0,0,0-1,1V8a1,1,0,0,0,1,1h3V59H12V56.91a5.976,5.976,0,0,0,3.793-9.5,4.953,4.953,0,0,0-1.136-4.808A3.909,3.909,0,0,0,15,41a4,4,0,0,0-8,0,3.909,3.909,0,0,0,.343,1.6,4.953,4.953,0,0,0-1.136,4.808A5.976,5.976,0,0,0,10,56.91V59H2a1,1,0,0,0,0,2H58a1,1,0,0,0,0-2ZM50,48a3.978,3.978,0,0,1,1.077-2.709,1,1,0,0,0,.181-1.084,2.963,2.963,0,0,1,.957-3.6,1,1,0,0,0,.2-1.4A1.975,1.975,0,0,1,52,38a2,2,0,0,1,4,0,1.975,1.975,0,0,1-.414,1.2,1,1,0,0,0,.2,1.4,2.96,2.96,0,0,1,.956,3.6,1,1,0,0,0,.182,1.084A3.969,3.969,0,0,1,55,51.858V49a1,1,0,0,0-2,0v2.858A4,4,0,0,1,50,48ZM7,51a3.978,3.978,0,0,1,1.077-2.709,1,1,0,0,0,.182-1.084,2.96,2.96,0,0,1,.956-3.6,1,1,0,0,0,.2-1.4A1.975,1.975,0,0,1,9,41a2,2,0,0,1,4,0,1.975,1.975,0,0,1-.414,1.2,1,1,0,0,0,.2,1.4,2.96,2.96,0,0,1,.956,3.6,1,1,0,0,0,.182,1.084A3.969,3.969,0,0,1,12,54.858V52a1,1,0,0,0-2,0v2.858A4,4,0,0,1,7,51ZM17,5H47V7H17ZM30,59V53h4v6Zm6,0V52a1,1,0,0,0-1-1H29a1,1,0,0,0-1,1v7H21V9H43V59Z" data-original="#000000" class="active-path" data-old_color="#000000" fill="#2D95E5"/><path d="M62,59H61a1,1,0,0,0,0,2h1a1,1,0,0,0,0-2Z" data-original="#000000" class="active-path" data-old_color="#000000" fill="#2D95E5"/><path d="M30,31H24a1,1,0,0,0-1,1v6a1,1,0,0,0,1,1h6a1,1,0,0,0,1-1V32A1,1,0,0,0,30,31Zm-1,6H25V33h4Z" data-original="#000000" class="active-path" data-old_color="#000000" fill="#2D95E5"/><path d="M40,31H34a1,1,0,0,0-1,1v6a1,1,0,0,0,1,1h6a1,1,0,0,0,1-1V32A1,1,0,0,0,40,31Zm-1,6H35V33h4Z" data-original="#000000" class="active-path" data-old_color="#000000" fill="#2D95E5"/><path d="M30,21H24a1,1,0,0,0-1,1v6a1,1,0,0,0,1,1h6a1,1,0,0,0,1-1V22A1,1,0,0,0,30,21Zm-1,6H25V23h4Z" data-original="#000000" class="active-path" data-old_color="#000000" fill="#2D95E5"/><path d="M40,21H34a1,1,0,0,0-1,1v6a1,1,0,0,0,1,1h6a1,1,0,0,0,1-1V22A1,1,0,0,0,40,21Zm-1,6H35V23h4Z" data-original="#000000" class="active-path" data-old_color="#000000" fill="#2D95E5"/><path d="M30,41H24a1,1,0,0,0-1,1v6a1,1,0,0,0,1,1h6a1,1,0,0,0,1-1V42A1,1,0,0,0,30,41Zm-1,6H25V43h4Z" data-original="#000000" class="active-path" data-old_color="#000000" fill="#2D95E5"/><path d="M40,41H34a1,1,0,0,0-1,1v6a1,1,0,0,0,1,1h6a1,1,0,0,0,1-1V42A1,1,0,0,0,40,41Zm-1,6H35V43h4Z" data-original="#000000" class="active-path" data-old_color="#000000" fill="#2D95E5"/><path d="M30,11H24a1,1,0,0,0-1,1v6a1,1,0,0,0,1,1h6a1,1,0,0,0,1-1V12A1,1,0,0,0,30,11Zm-1,6H25V13h4Z" data-original="#000000" class="active-path" data-old_color="#000000" fill="#2D95E5"/><path d="M40,11H34a1,1,0,0,0-1,1v6a1,1,0,0,0,1,1h6a1,1,0,0,0,1-1V12A1,1,0,0,0,40,11Zm-1,6H35V13h4Z" data-original="#000000" class="active-path" data-old_color="#000000" fill="#2D95E5"/><path d="M54,47a1,1,0,0,0,1-1V45a1,1,0,0,0-2,0v1A1,1,0,0,0,54,47Z" data-original="#000000" class="active-path" data-old_color="#000000" fill="#2D95E5"/><path d="M46,16a4,4,0,0,0,4,4h7a.929.929,0,0,0,.5-.145,3.5,3.5,0,0,0-.619-6.834,3.99,3.99,0,0,0-7.344-.994A4.006,4.006,0,0,0,46,16Zm3.965-2,.148.016a1,1,0,0,0,1.01-.669A1.992,1.992,0,0,1,55,13.955c0,.024,0,.049-.005.068a1,1,0,0,0,1.2,1.008A1.528,1.528,0,0,1,58,16.5a1.5,1.5,0,0,1-1.2,1.47,1.088,1.088,0,0,0-.112.03H50a2,2,0,0,1-.035-4Z" data-original="#000000" class="active-path" data-old_color="#000000" fill="#2D95E5"/><path d="M8,31h7a.929.929,0,0,0,.5-.145,3.5,3.5,0,0,0-.619-6.834,3.99,3.99,0,0,0-7.344-.994A4,4,0,0,0,8,31Zm-.035-6,.148.016a1,1,0,0,0,1.01-.669A1.992,1.992,0,0,1,13,24.955c0,.024,0,.049-.005.068a1,1,0,0,0,1.2,1.008A1.528,1.528,0,0,1,16,27.5a1.5,1.5,0,0,1-1.2,1.47,1.088,1.088,0,0,0-.112.03H8a2,2,0,0,1-.035-4Z" data-original="#000000" class="active-path" data-old_color="#000000" fill="#2D95E5"/></g> </svg>
