<?xml version="1.0"?>
<svg xmlns="http://www.w3.org/2000/svg" viewBox="0 0 64 64" width="512px" height="512px" class=""><g><g id="Bungalow-5" data-name="Bungalow"><path d="M58,56H57V40h3a1,1,0,0,0,.959-1.282l-5-17A1,1,0,0,0,55,21H49V17a1,1,0,0,0-1-1H42a1,1,0,0,0-1,1v4H9a1,1,0,0,0-.959.718l-5,17A1,1,0,0,0,4,40H7V56H2a1,1,0,0,0,0,2H58a1,1,0,0,0,0-2ZM43,18h4v3H43ZM9.748,23h44.5l4.411,15H41.38l-8.716-7.748a1,1,0,0,0-1.328,0L22.62,38H5.337ZM9,40H22V56H9Zm15-.551,8-7.111,8,7.111V56H36V47a1,1,0,0,0-1-1H29a1,1,0,0,0-1,1v9H24ZM30,56V48h4v8Zm12,0V40H55V56Z" data-original="#000000" class="active-path" data-old_color="#000000" fill="#2D95E5"/><path d="M62,56H61a1,1,0,0,0,0,2h1a1,1,0,0,0,0-2Z" data-original="#000000" class="active-path" data-old_color="#000000" fill="#2D95E5"/><path d="M32,44a4,4,0,1,0-4-4A4,4,0,0,0,32,44Zm0-6a2,2,0,1,1-2,2A2,2,0,0,1,32,38Z" data-original="#000000" class="active-path" data-old_color="#000000" fill="#2D95E5"/><path d="M20,46H11a1,1,0,0,0-1,1v4a1,1,0,0,0,1,1h9a1,1,0,0,0,1-1V47A1,1,0,0,0,20,46Zm-1,4H12V48h7Z" data-original="#000000" class="active-path" data-old_color="#000000" fill="#2D95E5"/><path d="M53,46H44a1,1,0,0,0-1,1v4a1,1,0,0,0,1,1h9a1,1,0,0,0,1-1V47A1,1,0,0,0,53,46Zm-1,4H45V48h7Z" data-original="#000000" class="active-path" data-old_color="#000000" fill="#2D95E5"/><path d="M13,18h7a.929.929,0,0,0,.5-.145,3.5,3.5,0,0,0-.618-6.834,3.991,3.991,0,0,0-7.346-.994A4,4,0,0,0,13,18Zm-.035-6,.147.016a.988.988,0,0,0,1.01-.669A1.993,1.993,0,0,1,18,11.958c0,.033,0,.067,0,.093a1,1,0,0,0,1.2.98A1.528,1.528,0,0,1,21,14.5a1.5,1.5,0,0,1-1.2,1.47,1.088,1.088,0,0,0-.112.03H13a2,2,0,0,1-.035-4Z" data-original="#000000" class="active-path" data-old_color="#000000" fill="#2D95E5"/></g></g> </svg>
