<?xml version="1.0"?>
<svg xmlns="http://www.w3.org/2000/svg" height="512px" viewBox="-44 0 512 512" width="512px"><g><path d="m227.894531 81.980469c-50.9375 0-98.890625-3.5-135.027343-9.855469-55.378907-9.734375-61.78125-22.433594-61.78125-31.136719s6.402343-21.398437 61.78125-31.132812c36.136718-6.355469 84.089843-9.855469 135.027343-9.855469 50.933594 0 98.886719 3.5 135.027344 9.855469 55.375 9.734375 61.777344 22.429687 61.777344 31.132812 0 12.148438-14.761719 18.628907-25.863281 22.445313-13.542969 4.65625-33.132813 8.753906-56.648438 11.851562-4.25.566406-8.136719-2.425781-8.695312-6.667968-.558594-4.242188 2.425781-8.136719 6.667968-8.695313 49.855469-6.570313 66.058594-15.417969 68.796875-18.929687-2.375-2.980469-15.285156-10.457032-53.804687-16.738282-34.648438-5.648437-79.84375-8.757812-127.257813-8.757812-47.417969 0-92.613281 3.109375-127.261719 8.757812-38.5 6.277344-51.414062 13.75-53.800781 16.734375 2.386719 2.984375 15.300781 10.460938 53.800781 16.734375 34.648438 5.648438 79.84375 8.761719 127.261719 8.761719 28.890625 0 56.589844-1.125 82.328125-3.339844 4.265625-.367187 8.019532 2.792969 8.382813 7.054688.367187 4.265625-2.789063 8.019531-7.054688 8.386719-26.175781 2.25-54.320312 3.394531-83.65625 3.394531zm0 0" data-original="#000000" class="active-path" data-old_color="#000000" fill="#2D95E5"/><path d="m257.003906 137.617188c-23.359375 0-48.917968-1.183594-75.238281-3.53125-47.09375-4.203126-91.128906-11.65625-123.992187-20.980469-38.503907-10.925781-55.863282-22.402344-54.640626-36.117188.382813-4.265625 4.140626-7.40625 8.40625-7.03125 4.179688.375 7.285157 4 7.046876 8.15625.460937.9375 5.941406 9.96875 47.578124 21.238281 31.488282 8.523438 73.03125 15.375 116.980469 19.300782 43.945313 3.921875 86.050781 4.535156 118.546875 1.722656 42.976563-3.714844 49.972656-11.632812 50.589844-12.472656.503906-4.132813 4.203125-7.160156 8.378906-6.777344 4.261719.378906 7.410156 4.144531 7.03125 8.40625-1.226562 13.714844-20.347656 21.9375-60.175781 25.871094-14.996094 1.476562-32.070313 2.214844-50.511719 2.214844zm0 0" data-original="#000000" class="active-path" data-old_color="#000000" fill="#2D95E5"/><path d="m113.199219 287.855469c-.175781 0-.355469-.003907-.535157-.015625-54.597656-3.726563-82.796874-14.242188-83.824218-31.253906-.257813-4.269532 2.996094-7.941407 7.269531-8.199219 4.28125-.257813 7.941406 2.996093 8.199219 7.265625.707031 2.535156 14.589844 12.984375 69.414062 16.726562 4.265625.292969 7.492188 3.988282 7.203125 8.257813-.28125 4.089843-3.6875 7.21875-7.726562 7.21875zm0 0" data-original="#000000" class="active-path" data-old_color="#000000" fill="#2D95E5"/><path d="m150.632812 289.066406c-2.183593 0-4.351562-.011718-6.507812-.035156-4.28125-.042969-7.710938-3.546875-7.667969-7.828125.042969-4.277344 3.519531-7.679687 7.828125-7.667969 15.25.160156 31.160156-.257812 47.300782-1.230468 39.238281-2.367188 76.183593-7.824219 104.027343-15.363282 37.25-10.085937 40.167969-18.851562 40.179688-18.9375-.257813-4.269531 2.996093-7.914062 7.269531-8.167968 4.261719-.257813 7.941406 3.023437 8.199219 7.296874.8125 13.445313-15.273438 24.601563-49.179688 34.101563-29.125 8.160156-68.035156 14.03125-109.5625 16.539063-14.222656.859374-28.285156 1.292968-41.886719 1.292968zm0 0" data-original="#000000" class="active-path" data-old_color="#000000" fill="#2D95E5"/><path d="m231.890625 245.503906c-19.9375 0-41.46875-.988281-63.582031-2.960937-42.988282-3.835938-83.164063-10.953125-113.132813-20.039063-34.8125-10.550781-51.152343-22.21875-49.949219-35.671875.378907-4.261719 4.140626-7.417969 8.40625-7.027343 4.234376.378906 7.367188 4.09375 7.035157 8.324218.5 2.3125 9.164062 10.855469 41.929687 20.417969 28.660156 8.363281 66.695313 14.957031 107.085938 18.5625 40.394531 3.605469 78.992187 3.851563 108.683594.699219 33.941406-3.605469 43.980468-10.480469 44.882812-12.667969.421875-4.21875 4.167969-7.328125 8.398438-6.945313 4.261718.378907 7.410156 4.144532 7.03125 8.40625-1.203126 13.453126-19.351563 22.042969-55.484376 26.261719-15.097656 1.761719-32.492187 2.640625-51.304687 2.640625zm0 0" data-original="#000000" class="active-path" data-old_color="#000000" fill="#2D95E5"/><path d="m162.785156 346.699219c-10.925781 0-21.144531-.519531-30.375-1.5625-29.449218-3.332031-45.320312-11.605469-47.175781-24.582031-.601563-4.238282 2.339844-8.164063 6.578125-8.769532 4.238281-.605468 8.160156 2.339844 8.765625 6.578125.230469 1.625 6.609375 8.324219 33.574219 11.375 24.144531 2.734375 55.703125 1.632813 88.863281-3.101562s63.765625-12.503907 86.183594-21.886719c25.03125-10.472656 29.28125-18.6875 29.050781-20.316406-.605469-4.234375 2.339844-8.160156 6.574219-8.765625 4.238281-.609375 8.160156 2.339843 8.765625 6.578125 1.855468 12.976562-11.070313 25.359375-38.410156 36.800781-23.597657 9.871094-55.550782 18.015625-89.972657 22.929687-21.925781 3.128907-43.257812 4.722657-62.421875 4.722657zm0 0" data-original="#000000" class="active-path" data-old_color="#000000" fill="#2D95E5"/><path d="m243.203125 398.167969c-47.808594 0-91.59375-11.058594-93.058594-34.691407-.265625-4.273437 2.984375-7.949218 7.253907-8.214843 4.257812-.269531 7.949218 2.980469 8.214843 7.253906.535157 8.636719 35.019531 23.375 96.320313 19.570313 61.304687-3.800782 93.703125-22.679688 93.167968-31.316407-.261718-4.269531 2.984376-7.949219 7.257813-8.214843 4.25-.269532 7.945313 2.984374 8.210937 7.257812 1.664063 26.855469-52.90625 44.34375-107.675781 47.742188-6.574219.40625-13.167969.613281-19.691406.613281zm0 0" data-original="#000000" class="active-path" data-old_color="#000000" fill="#2D95E5"/><path d="m246.214844 449.429688c-4.101563 0-8.261719-.136719-12.460938-.410157-21.804687-1.425781-42.183594-6.445312-57.382812-14.132812-17.238282-8.71875-26.289063-20.214844-25.496094-32.367188.28125-4.269531 3.972656-7.503906 8.238281-7.226562 4.273438.28125 7.507813 3.964843 7.226563 8.238281-.347656 5.324219 6.175781 12.039062 17.023437 17.527344 13.378907 6.765625 31.632813 11.203125 51.402344 12.5 19.769531 1.292968 38.445313-.730469 52.59375-5.695313 11.472656-4.023437 18.8125-9.835937 19.164063-15.15625.277343-4.269531 3.96875-7.511719 8.238281-7.226562 4.269531.28125 7.503906 3.96875 7.222656 8.238281-.792969 12.15625-11.269531 22.371094-29.492187 28.769531-12.976563 4.550781-29.078126 6.941407-46.277344 6.941407zm0 0" data-original="#000000" class="active-path" data-old_color="#000000" fill="#2D95E5"/><path d="m210.972656 485.03125c-10.367187 0-23.230468-2.132812-36.308594-6.03125-13.296874-3.960938-25.417968-9.328125-34.128906-15.113281-14.3125-9.507813-15.457031-17.734375-13.902344-22.960938 1.222657-4.101562 5.535157-6.441406 9.640626-5.214843 3.785156 1.128906 6.0625 4.886718 5.433593 8.683593 1.824219 3.640625 14.289063 12.875 37.382813 19.753907 23.097656 6.882812 38.582031 5.976562 42.101562 3.929687 1.550782-3.523437 5.515625-5.421875 9.300782-4.292969 4.101562 1.222656 6.433593 5.535156 5.210937 9.636719-1.558594 5.230469-7.019531 11.488281-24.203125 11.609375-.175781 0-.351562 0-.527344 0zm-69.484375-39.6875s-.003906.003906-.003906.003906c.003906 0 .003906-.003906.003906-.003906zm0 0" data-original="#000000" class="active-path" data-old_color="#000000" fill="#2D95E5"/><path d="m152.214844 512c-3.058594 0-6.195313-.160156-9.363282-.484375-10.570312-1.074219-20.445312-3.867187-27.804687-7.859375-12.699219-6.882812-13.871094-15.007812-13.4375-19.238281.433594-4.257813 4.242187-7.355469 8.492187-6.921875 4.167969.421875 7.226563 4.074218 6.945313 8.21875 1.015625 2.371094 10.234375 8.636718 27.378906 10.382812 17.144531 1.75 27.4375-2.523437 28.90625-4.644531.566407-4.113281 4.300781-7.078125 8.460938-6.648437 4.257812.433593 7.359375 4.238281 6.925781 8.492187-.433594 4.230469-3.21875 11.953125-17.042969 16.132813-5.613281 1.699218-12.316406 2.570312-19.460937 2.570312zm-35.1875-26.011719" data-original="#000000" class="active-path" data-old_color="#000000" fill="#2D95E5"/><path d="m152.136719 185.835938c-36.015625 0-69.378907-2.332032-95.800781-6.773438-38.035157-6.394531-55.9375-15.765625-56.33203175-29.496094-.12500025-4.277344 3.24609375-7.84375 7.51953175-7.96875 4.222656-.109375 7.75 3.152344 7.964843 7.347656.425781.746094 6.125 9.035157 47.164063 15.441407 30.957031 4.832031 71.371094 6.824219 113.796875 5.597656 42.425781-1.222656 82.660156-5.53125 113.289062-12.140625 40.597657-8.757812 45.808594-17.359375 46.195313-18.128906-.027344-4.203125 3.304687-7.671875 7.523437-7.792969 4.28125-.121094 7.847657 3.242187 7.96875 7.519531.398438 13.730469-16.933593 24.117188-54.542969 32.691406-32.019531 7.296876-74.632812 12.035157-119.988281 13.34375-8.351562.242188-16.625.359376-24.757812.359376zm183.800781-45.945313h.007812zm0 0" data-original="#000000" class="active-path" data-old_color="#000000" fill="#2D95E5"/></g> </svg>
