<?xml version="1.0"?>
<svg xmlns="http://www.w3.org/2000/svg" height="512px" viewBox="0 0 64 64" width="512px" class=""><g><path d="m62 55h-1a1 1 0 0 0 0 2h1a1 1 0 0 0 0-2z" data-original="#000000" class="active-path" data-old_color="#000000" fill="#2D95E5"/><path d="m27 45h-4a1 1 0 0 0 -1 1v4a1 1 0 0 0 1 1h4a1 1 0 0 0 1-1v-4a1 1 0 0 0 -1-1zm-1 4h-2v-2h2z" data-original="#000000" class="active-path" data-old_color="#000000" fill="#2D95E5"/><path d="m49 45h-4a1 1 0 0 0 -1 1v4a1 1 0 0 0 1 1h4a1 1 0 0 0 1-1v-4a1 1 0 0 0 -1-1zm-1 4h-2v-2h2z" data-original="#000000" class="active-path" data-old_color="#000000" fill="#2D95E5"/><path d="m23 36h4a1 1 0 0 0 1-1v-4a1 1 0 0 0 -1-1h-4a1 1 0 0 0 -1 1v4a1 1 0 0 0 1 1zm1-4h2v2h-2z" data-original="#000000" class="active-path" data-old_color="#000000" fill="#2D95E5"/><path d="m45 36h4a1 1 0 0 0 1-1v-4a1 1 0 0 0 -1-1h-4a1 1 0 0 0 -1 1v4a1 1 0 0 0 1 1zm1-4h2v2h-2z" data-original="#000000" class="active-path" data-old_color="#000000" fill="#2D95E5"/><path d="m60 24a1 1 0 0 0 -1-1h-54a1 1 0 0 0 -1 1v4a1 1 0 0 0 1 1h2v26h-5a1 1 0 0 0 0 2h56a1 1 0 0 0 0-2h-1v-26h2a1 1 0 0 0 1-1zm-5 17h-6v-2h6zm-8 0h-6v-2h6zm-6-4h-4v-5h4zm-2 2v2h-6v-2zm-8 2h-6v-2h6zm-8 0h-6v-2h6zm-4-4h-4v-5h4zm-4 2v2h-6v-2zm0 16v-8h4v8zm22 0v-8h4v8zm6 0v-9a1 1 0 0 0 -1-1h-6a1 1 0 0 0 -1 1v9h-14v-9a1 1 0 0 0 -1-1h-6a1 1 0 0 0 -1 1v9h-4v-12h46v12zm12-18h-12v-6a1 1 0 0 0 -1-1h-6a1 1 0 0 0 -1 1v6h-14v-6a1 1 0 0 0 -1-1h-6a1 1 0 0 0 -1 1v6h-4v-8h46zm3-10h-52v-2h52z" data-original="#000000" class="active-path" data-old_color="#000000" fill="#2D95E5"/><path d="m22 18h7a.929.929 0 0 0 .5-.145 3.5 3.5 0 0 0 -.618-6.834 3.991 3.991 0 0 0 -7.346-.994 4 4 0 0 0 .464 7.973zm-.035-6 .147.016a.99.99 0 0 0 1.01-.669 1.993 1.993 0 0 1 3.878.611v.093a1 1 0 0 0 1.2.98 1.527 1.527 0 0 1 1.8 1.469 1.5 1.5 0 0 1 -1.2 1.47 1.088 1.088 0 0 0 -.112.03h-6.688a2 2 0 0 1 -.035-4z" data-original="#000000" class="active-path" data-old_color="#000000" fill="#2D95E5"/><path d="m38 22h7a.929.929 0 0 0 .5-.145 3.5 3.5 0 0 0 -.618-6.834 3.991 3.991 0 0 0 -7.346-.994 4 4 0 0 0 .464 7.973zm-.035-6 .147.016a.992.992 0 0 0 1.01-.669 1.993 1.993 0 0 1 3.878.611c0 .033-.005.067-.005.093a1 1 0 0 0 1.2.98 1.528 1.528 0 0 1 1.805 1.469 1.5 1.5 0 0 1 -1.2 1.47 1.088 1.088 0 0 0 -.112.03h-6.688a2 2 0 0 1 -.035-4z" data-original="#000000" class="active-path" data-old_color="#000000" fill="#2D95E5"/></g> </svg>
